<svg width="11" height="14" viewBox="0 0 11 14" fill="none" xmlns="http://www.w3.org/2000/svg">
<path fill-rule="evenodd" clip-rule="evenodd" d="M0.166626 5.61337C0.195874 2.6887 2.57514 0.333228 5.49996 0.333374C8.42477 0.333228 10.804 2.6887 10.8333 5.61337C10.8333 9.26671 6.16663 13.3334 5.93329 13.5067C5.68381 13.7201 5.31611 13.7201 5.06663 13.5067L5.06553 13.5058C4.8502 13.3191 0.166626 9.26032 0.166626 5.61337ZM3.16663 5.33337C3.16663 6.62204 4.21129 7.66671 5.49996 7.66671C6.1188 7.66671 6.71229 7.42087 7.14987 6.98329C7.58746 6.5457 7.83329 5.95221 7.83329 5.33337C7.83329 4.04471 6.78862 3.00004 5.49996 3.00004C4.21129 3.00004 3.16663 4.04471 3.16663 5.33337Z" fill="#002930"/>
</svg>
